# xmcd
#
# Track frame offsets: 
#        150
#        21745
#        39382
#        57750
#        78400
#        103302
#        121425
#        142555
#        163767
#        188602
#        206835
#        230822
#        249502
#        267000
#        285887
#        306592
#
# Disc length: 4326 seconds
#
# Revision: 15
# Processed by: cddbd v1.5.2PL0 Copyright (c) Steve Scherf et al.
# Submitted via: ExactAudioCopy v1.0b3
#
DISCID=e210e410
DTITLE=Celine Dion - All The Way... A Decade Of Song
DYEAR=1999
DGENRE=Pop
TTITLE0=The Power Of Love
TTITLE1=If You Asked Me To
TTITLE2=Beauty And The Beast (Duet With Peabo Bryson)
TTITLE3=Because You Loved Me (Theme From Up Close and Personal)
TTITLE4=It's All Coming Back To Me Now
TTITLE5=Love Can Move Mountains
TTITLE6=To Love You More
TTITLE7=My Heart Will Go On (Love Theme From Titanic)
TTITLE8=I'm Your Angel (Duet With R. Kelly)
TTITLE9=That's The Way It Is
TTITLE10=If Walls Could Talk
TTITLE11=The First Time Ever I Saw Your Face
TTITLE12=All The Way (Duet With Frank Sinatra)
TTITLE13=Then You Look At Me
TTITLE14=I Want You To Need Me
TTITLE15=Live For The One I Love
EXTD=YEAR: 1999 ID3G:  17
EXTT0=
EXTT1=
EXTT2=with Peabo Bryson
EXTT3=Theme from "Up Close and Personal"
EXTT4=
EXTT5=
EXTT6=
EXTT7=Love theme from "Titanic"
EXTT8=Duet with R. Kelly
EXTT9=
EXTT10=
EXTT11=
EXTT12=
EXTT13=
EXTT14=
EXTT15=
PLAYORDER=
